<svg width="18" height="18" viewBox="0 0 18 18" fill="none" xmlns="http://www.w3.org/2000/svg">
<path d="M9.00001 17.3334C13.6024 17.3334 17.3333 13.6025 17.3333 9.00008C17.3333 4.39771 13.6024 0.666748 9.00001 0.666748C4.39763 0.666748 0.666672 4.39771 0.666672 9.00008C0.666672 13.6025 4.39763 17.3334 9.00001 17.3334ZM5.84973 5.8498C6.09381 5.60572 6.48954 5.60572 6.73361 5.8498L9.00001 8.11619L11.2664 5.8498C11.5105 5.60572 11.9062 5.60572 12.1503 5.8498C12.3944 6.09388 12.3944 6.48961 12.1503 6.73368L9.88389 9.00008L12.1503 11.2665C12.3944 11.5105 12.3944 11.9063 12.1503 12.1504C11.9062 12.3944 11.5105 12.3944 11.2664 12.1504L9.00001 9.88396L6.73361 12.1504C6.48954 12.3944 6.09381 12.3944 5.84973 12.1504C5.60565 11.9063 5.60565 11.5105 5.84973 11.2665L8.11612 9.00008L5.84973 6.73368C5.60565 6.48961 5.60565 6.09388 5.84973 5.8498Z" fill="#000" fill-opacity="0.5"/>
</svg>
