<svg width="18" height="18" viewBox="0 0 18 18" fill="none" xmlns="http://www.w3.org/2000/svg">
<path d="M5.20787 3.61517C4.32824 3.61517 3.61517 4.32824 3.61517 5.20787V12.7921C3.61517 13.6718 4.32824 14.3848 5.20787 14.3848H12.7921C13.6718 14.3848 14.3848 13.6718 14.3848 12.7921V11.6545C14.3848 11.2775 14.6904 10.9719 15.0674 10.9719C15.4444 10.9719 15.75 11.2775 15.75 11.6545V12.7921C15.75 14.4257 14.4257 15.75 12.7921 15.75H5.20787C3.57428 15.75 2.25 14.4257 2.25 12.7921V5.20787C2.25 3.57428 3.57428 2.25 5.20787 2.25H6.34551C6.72249 2.25 7.02809 2.5556 7.02809 2.93258C7.02809 3.30957 6.72249 3.61517 6.34551 3.61517H5.20787ZM13.4195 3.61517L7.75891 9.27576C7.49235 9.54232 7.49235 9.97451 7.75891 10.2411C8.02548 10.5076 8.45767 10.5076 8.72423 10.2411L14.3848 4.58048V7.86236C14.3848 8.23934 14.6904 8.54494 15.0674 8.54494C15.4444 8.54494 15.75 8.23934 15.75 7.86236V2.93258C15.75 2.5556 15.4444 2.25 15.0674 2.25H10.1376C9.76066 2.25 9.45506 2.5556 9.45506 2.93258C9.45506 3.30957 9.76066 3.61517 10.1376 3.61517H13.4195Z" fill="white" stroke="white" stroke-width="0.8" stroke-linecap="round" stroke-linejoin="round"/>
</svg>
